<svg width="132" height="48" viewBox="0 0 132 48" fill="none" xmlns="http://www.w3.org/2000/svg">
<g clip-path="url(#clip0_8_1058)">
<path fill-rule="evenodd" clip-rule="evenodd" d="M20.7355 7.12697C19.5312 8.36645 17.5901 10.364 16.4217 11.5661L14.2973 13.7517L13.4528 13.1999C12.9883 12.8963 12.5426 12.648 12.4624 12.648C12.3821 12.648 12.1144 12.5442 11.8673 12.4174C11.2199 12.0853 8.44813 12.0853 7.80067 12.4174C7.55357 12.5442 7.28587 12.648 7.20562 12.648C6.82915 12.648 5.412 13.7336 5.412 14.022C5.412 14.2362 6.26248 15.1456 8.45764 17.2786C14.6546 23.3003 14.3516 22.9616 13.9249 23.3883C13.5456 23.7675 12.8039 25.4044 12.6573 26.1854C12.4844 27.1073 12.5958 29.0219 12.8518 29.527C12.9485 29.7178 13.1677 30.1534 13.3387 30.4949C13.6723 31.1607 14.3128 31.92 14.5407 31.92C14.6174 31.92 15.4015 31.1702 16.2831 30.254C17.2773 29.2212 18.2736 28.1904 19.272 27.1617C23.6507 22.6554 23.4156 22.859 23.76 23.274C23.8504 23.3829 24.0062 23.472 24.1061 23.472C24.2062 23.472 24.288 23.5166 24.288 23.5713C24.288 23.9582 26.5595 24.6604 27.8063 24.6589C29.295 24.6574 31.5187 23.7929 32.1288 22.9785L32.3797 22.6437L29.7528 20.0734C28.2717 18.6242 26.7911 17.1745 25.311 15.7243C24.3128 14.7459 23.496 13.8889 23.496 13.82C23.496 13.6933 23.8849 13.0337 24.0313 12.912C24.1936 12.777 24.5816 11.896 24.8361 11.0839C25.2474 9.77146 25.0675 7.66909 24.4473 6.5401C23.2815 4.41754 23.3838 4.4013 20.7355 7.12697ZM15.4452 15.42C15.4082 15.3837 15.3033 15.2203 15.2119 15.057C15.0201 14.7143 15.1347 14.677 15.5294 14.9534C17.0511 16.0193 20.3049 16.0193 21.8266 14.9534C22.3157 14.611 22.4541 14.7211 22.1604 15.2187C21.0745 17.0593 21.1999 20.2692 22.412 21.6578C22.7366 22.0296 22.5253 22.0486 21.8991 21.704C20.1235 20.7267 17.7585 20.7537 15.8746 21.773C15.4814 21.9857 15.1851 22.1135 15.2166 22.057C16.0094 20.6242 16.1498 20.1077 16.16 18.588C16.1693 17.1617 15.8706 15.8377 15.4452 15.42Z" fill="white"/>
<path d="M17.853 31.8177C14.4953 35.1778 11.748 37.9919 11.748 38.0711C11.748 38.4096 13.904 39.6581 15.048 39.982C15.3747 40.0746 15.7055 40.1976 15.7831 40.2554C16.2279 40.5871 20.6195 40.5899 21.0314 40.2587C21.1164 40.1905 21.3939 40.09 21.648 40.0356C21.9021 39.9812 22.317 39.8259 22.57 39.6904C22.8231 39.5549 23.0747 39.444 23.129 39.444C23.4572 39.444 25.813 37.7722 26.829 36.8184C27.3854 36.2959 27.4235 36.0626 27.1181 35.0468C26.9815 34.5889 26.8495 34.1296 26.7221 33.669C26.6175 33.2879 26.4425 32.6641 26.3332 32.283C26.2239 31.9019 26.0792 31.3524 26.0117 31.062C25.9442 30.7716 25.763 30.0885 25.6089 29.544C25.2055 28.1177 24.9546 27.1947 24.7654 26.442C24.4477 25.1778 24.6284 25.0374 17.853 31.8177Z" fill="white"/>
<path d="M41.448 18.723C41.448 18.8987 41.5371 18.984 41.7207 18.984C42.4835 18.984 42.4738 18.9323 42.4061 22.6421C42.3369 26.4223 42.3092 26.5481 41.5133 26.6974C41.1634 26.763 41.0469 26.8461 41.078 27.0076C41.1455 27.3576 44.22 27.3657 44.22 27.0161C44.22 26.8626 44.0901 26.7485 43.857 26.6976C43.6574 26.6537 43.4198 26.5951 43.329 26.5671C43.1474 26.5112 43.135 25.3713 43.2796 22.0314C43.3727 19.8827 43.3422 19.8831 44.1654 22.02C44.4311 22.7097 44.7599 23.5232 44.8962 23.8277C45.0325 24.1323 45.144 24.4703 45.144 24.579C45.144 24.6876 45.1968 24.809 45.2613 24.849C45.3259 24.8889 45.4193 25.0833 45.469 25.2812C45.5186 25.4789 45.6737 25.8921 45.8136 26.1991C45.9536 26.5063 46.068 26.8129 46.068 26.8806C46.068 26.9484 46.1481 27.0702 46.2459 27.1514C46.5256 27.3836 46.7643 27.0158 47.52 25.188C47.8781 24.3219 48.0722 23.8725 48.4358 23.0673C48.5855 22.7358 48.708 22.3647 48.708 22.2423C48.708 22.1201 48.7626 22.02 48.8296 22.02C48.8964 22.02 48.9889 21.8476 49.0352 21.6369C49.1456 21.1341 49.5923 20.2635 49.6709 20.3973C49.7842 20.5896 49.9083 26.3079 49.8024 26.4547C49.745 26.5343 49.5308 26.6403 49.3263 26.6904C49.0702 26.7531 48.968 26.8519 48.998 27.0078C49.0595 27.3271 52.206 27.3544 52.206 27.0356C52.206 26.927 52.0147 26.7816 51.7811 26.7129C51.2176 26.5469 51.2048 26.5001 51.0757 24.132C50.8339 19.6968 50.9141 18.984 51.6554 18.984C51.788 18.984 51.876 18.8787 51.876 18.72C51.876 18.4737 51.788 18.456 50.5664 18.456H49.257L49.1629 18.8845C49.1111 19.1201 48.9926 19.4914 48.8995 19.7095C48.8066 19.9275 48.6035 20.4327 48.4481 20.832C48.2929 21.2313 48.1123 21.6768 48.0468 21.822C47.9813 21.9672 47.7729 22.4721 47.5836 22.944C47.3943 23.4159 47.1614 23.9802 47.0658 24.198C46.9702 24.4158 46.8619 24.6831 46.8249 24.792C46.7644 24.9703 46.6316 24.7264 46.0708 23.406C45.8942 22.9901 45.0124 20.7084 44.719 19.908C44.1874 18.4578 44.2809 18.526 42.7766 18.492C41.5312 18.4641 41.448 18.4786 41.448 18.723Z" fill="white"/>
<path fill-rule="evenodd" clip-rule="evenodd" d="M56.5963 18.6232C56.3627 18.8061 56.1026 19.3758 55.3776 21.294C55.1031 22.02 54.797 22.8012 54.6972 23.0299C54.5976 23.2587 54.516 23.5063 54.516 23.5802C54.516 23.6542 54.4297 23.8828 54.3242 24.0883C54.2189 24.2938 53.9978 24.8184 53.833 25.254C53.413 26.3648 53.243 26.5976 52.7851 26.6892C52.4943 26.7473 52.3965 26.8333 52.4289 27.0017C52.4956 27.3473 55.0858 27.3409 55.1524 26.9949C55.1834 26.8339 55.0798 26.7461 54.7899 26.6882C54.3113 26.5925 54.2441 26.0484 54.5965 25.122C54.707 24.8316 54.8328 24.4752 54.8761 24.33C54.9989 23.9186 55.1583 23.8722 56.4568 23.87L57.6716 23.868L57.8699 24.297C58.6987 26.0913 58.7672 26.584 58.2046 26.7076C57.9258 26.7688 57.8143 26.8633 57.8432 27.014C57.9081 27.3508 60.852 27.3562 60.852 27.0196C60.852 26.8771 60.6799 26.7357 60.39 26.64C60.1359 26.5562 59.928 26.3992 59.928 26.2913C59.928 26.1833 59.8034 25.7869 59.6512 25.4104C59.4973 25.0296 59.3468 24.6475 59.1998 24.264C59.1037 24.0099 58.8125 23.2661 58.5526 22.6111C58.2927 21.9561 58.078 21.3621 58.0755 21.2911C58.073 21.2201 57.9563 20.9244 57.816 20.634C57.6757 20.3436 57.559 20.0056 57.5565 19.8828C57.554 19.76 57.4972 19.6257 57.4302 19.5843C57.3631 19.5429 57.2702 19.3355 57.2237 19.1237C57.1101 18.6065 56.8663 18.412 56.5963 18.6232ZM55.8738 21.756C55.9922 21.4293 56.1532 20.9887 56.2316 20.777C56.404 20.3114 56.6532 20.5563 56.8251 21.36C56.8793 21.6141 56.9975 21.9705 57.0874 22.152C57.1774 22.3335 57.2901 22.6454 57.338 22.845L57.425 23.208H56.3789C55.2911 23.208 55.1553 23.0863 55.5683 22.482C55.6179 22.4094 55.7553 22.0827 55.8738 21.756Z" fill="white"/>
<path d="M64.152 18.5759C60.5888 19.804 59.9077 24.5919 63.0111 26.5963C64.3466 27.4588 66.5767 27.5303 68.0634 26.7581C68.4163 26.5751 68.8563 24.9867 68.63 24.714C68.413 24.4525 68.1466 24.6323 68.0589 25.0996C67.8046 26.4556 65.7874 27.1585 64.3247 26.4009C62.2494 25.3262 61.8196 21.657 63.5588 19.8615C64.5896 18.7974 66.5091 18.6512 67.3877 19.5702C67.6544 19.8491 67.98 20.4314 67.98 20.6294C67.98 20.748 68.0964 20.832 68.261 20.832C68.5304 20.832 68.5382 20.7921 68.4501 19.875C68.3994 19.3486 68.2754 18.8335 68.1747 18.7304C67.9601 18.5108 64.7038 18.3856 64.152 18.5759Z" fill="white"/>
<path d="M60.7609 4.99609C60.0455 5.14024 59.004 5.80525 59.004 6.11796C59.004 6.16245 58.922 6.28072 58.822 6.38091C58.3608 6.84211 58.4191 8.56273 58.9152 9.13126C59.4726 9.77027 60.7852 9.70387 61.2892 9.0114C61.6354 8.53554 61.5457 7.84413 61.1301 7.78539C60.8417 7.7446 60.8214 7.77614 60.8958 8.14839C60.9946 8.64154 60.821 8.6847 60.6093 8.2198C60.1632 7.24102 60.7574 5.388 61.5171 5.388C61.7619 5.388 61.776 5.48819 61.776 7.22518V9.06249L61.3363 9.33427C60.9016 9.60289 59.8912 10.6325 59.0135 11.701C58.5441 12.2726 58.0409 12.4241 57.7104 12.0936C57.4765 11.8597 57.5161 11.7475 57.849 11.7002C58.3387 11.6307 58.2182 11.2587 57.7133 11.2818C56.1587 11.3532 56.2082 13.7909 57.7723 14.1834C58.8146 14.4449 59.6346 13.7344 60.605 11.7286C60.9726 10.969 61.394 10.1968 61.5412 10.0126L61.809 9.678L61.7159 11.031C61.6647 11.7752 61.6544 12.384 61.693 12.384C62.202 12.384 63.1204 12.0411 63.3914 11.7499C63.7197 11.3969 63.7231 11.3685 63.8004 8.33952C63.8433 6.65956 63.8954 5.20426 63.9161 5.10552C63.9614 4.89102 61.6754 4.81182 60.7609 4.99609Z" fill="white"/>
<path d="M65.2085 7.863C65.2088 7.91752 65.3276 8.15644 65.4725 8.39417C66.0441 9.33163 65.5665 10.8 64.6902 10.8C64.4452 10.8 64.416 10.8788 64.416 11.5425V12.285L64.823 12.2036C65.616 12.045 66.132 10.7399 66.132 8.893C66.132 8.05057 66.1408 8.028 66.4736 8.028H66.8152L66.7706 10.145L66.726 12.2622L67.716 12.224C68.6898 12.1867 68.7052 12.1806 68.654 11.856C68.5553 11.2294 68.5855 8.35708 68.694 8.061L68.8027 7.764H67.0054C66.0168 7.764 65.2083 7.80849 65.2085 7.863Z" fill="white"/>
<path d="M69.1797 7.97613C69.4498 8.30164 69.557 8.50518 70.7813 11.0186C71.5094 12.5134 71.354 12.773 69.729 12.7785C69.3087 12.78 69.3 12.7921 69.3 13.374V13.968L69.795 13.9671C70.5758 13.9658 71.2523 13.4074 71.713 12.384C73.01 9.50337 73.4118 8.67493 73.6976 8.292L73.944 7.962L73.9057 8.58465C73.859 9.34325 73.9471 9.46495 74.1948 8.98474C74.4366 8.51627 74.844 8.1699 75.16 8.16436C75.3976 8.16027 75.4065 8.26111 75.341 10.2114L75.2721 12.263L76.1998 12.2244L77.1276 12.186L77.0993 10.173C77.0751 8.44974 77.0999 8.16 77.2712 8.16C77.4835 8.16 78.408 9.04163 78.408 9.24399C78.408 9.30985 78.4652 9.32833 78.535 9.28517C78.6163 9.23488 78.6163 9.08651 78.535 8.87267C78.4652 8.68906 78.408 8.36447 78.408 8.15142V7.764H72.8806L72.9536 8.21386C73.0176 8.60893 72.4788 10.14 72.2757 10.14C72.0756 10.14 71.5251 8.59151 71.5878 8.20488L71.6594 7.764H70.3316C69.1269 7.764 69.02 7.78367 69.1797 7.97613Z" fill="white"/>
<path fill-rule="evenodd" clip-rule="evenodd" d="M80.2206 7.76453C80.0196 7.82499 79.6335 8.09611 79.3626 8.36698C78.8749 8.85472 78.87 8.87016 78.87 9.9288C78.87 11.6291 79.4313 12.186 81.145 12.186H82.2322L82.7649 11.6531C83.6419 10.7762 83.6752 9.24517 82.8367 8.35602C82.2063 7.68757 81.2189 7.46436 80.2206 7.76453ZM80.85 11.7767C80.501 11.5174 80.4449 8.3716 80.7853 8.15631C81.4315 7.7479 81.637 8.18257 81.637 9.95811C81.637 11.6724 81.4114 12.1937 80.85 11.7767Z" fill="white"/>
<path fill-rule="evenodd" clip-rule="evenodd" d="M84.777 7.92016C84.0109 8.17716 83.7659 8.42532 84.084 8.622C84.2737 8.73922 84.2597 13.3435 84.0691 13.5341C83.7766 13.8266 84.1071 13.968 85.0827 13.968H86.0658L85.9831 13.077L85.9002 12.186L86.6047 12.2337C87.4309 12.2896 87.9843 12.0449 88.4573 11.4147C88.8905 10.8374 88.9215 8.82977 88.506 8.26019C88.0329 7.61167 86.6629 7.44799 86.1342 7.97665C85.9526 8.15829 85.932 8.15103 85.932 7.90537C85.932 7.56957 85.8177 7.57102 84.777 7.92016ZM86.0121 11.6472C85.9031 11.3632 85.91 8.754 86.02 8.64405C86.2023 8.46162 86.7199 8.56577 86.8514 8.81129C87.0793 9.23725 87.0252 11.4039 86.7806 11.6486C86.5136 11.9155 86.1148 11.9149 86.0121 11.6472Z" fill="white"/>
<path fill-rule="evenodd" clip-rule="evenodd" d="M90.75 7.76968C89.4835 8.18429 88.8508 9.9787 89.5561 11.1563C90.4558 12.6586 93.0043 12.5912 93.7758 11.0447C93.9973 10.6007 94.0674 9.084 93.8662 9.084C93.8016 9.084 93.7133 8.94316 93.6701 8.77103C93.4674 7.96319 91.8517 7.40919 90.75 7.76968ZM91.2858 11.6069C91.0347 11.1216 91.0003 8.87531 91.2359 8.35813C91.6798 7.38397 92.3496 8.67058 92.2359 10.2794C92.1353 11.7063 91.6719 12.3538 91.2858 11.6069Z" fill="white"/>
<path fill-rule="evenodd" clip-rule="evenodd" d="M94.71 10.0224V12.2806L96.4542 12.2297C97.9639 12.1856 98.2479 12.1419 98.5662 11.9051C99.212 11.4249 99.0771 10.008 98.3855 10.008C98.1172 10.008 98.1725 9.79984 98.4984 9.58336C98.9402 9.29005 98.901 8.48631 98.425 8.07684C98.0836 7.78327 97.9583 7.764 96.3856 7.764L94.71 7.76413V10.0224ZM97.0274 9.33414C96.7373 9.87626 96.492 9.67101 96.492 8.886C96.492 8.25359 96.5253 8.16 96.7501 8.16C97.0711 8.16 97.2502 8.91781 97.0274 9.33414ZM97.0785 11.5626C96.6775 12.1353 96.492 11.9359 96.492 10.932C96.492 9.93897 96.6311 9.77661 97.0567 10.2735C97.3394 10.6038 97.3492 11.1762 97.0785 11.5626Z" fill="white"/>
<path d="M101.059 7.7607C99.5817 8.23537 99.0283 10.5439 100.116 11.6967C100.525 12.1303 100.638 12.1762 101.399 12.2175C102.402 12.2719 102.744 12.1168 103.267 11.3733C103.68 10.7857 103.716 10.3264 103.319 10.7244C102.442 11.601 100.848 10.5842 100.848 9.14842C100.848 7.90419 101.82 7.60732 102.716 8.57791C102.996 8.88046 103.224 9.21059 103.224 9.3117C103.224 9.41281 103.283 9.45888 103.356 9.414C103.528 9.30787 103.528 7.93626 103.356 7.83013C103.121 7.6848 101.453 7.63438 101.059 7.7607Z" fill="white"/>
<path d="M104.214 10.013V12.262L105.204 12.224C106.106 12.1894 106.191 12.1624 106.163 11.922C105.973 10.319 105.968 10.14 106.107 10.14C106.189 10.14 106.322 10.4014 106.402 10.7208C106.667 11.7718 107.147 12.186 108.098 12.186C108.894 12.186 109.53 11.8531 108.93 11.7515C108.799 11.7294 108.548 11.3833 108.342 10.9422C108.037 10.2906 107.887 10.1273 107.374 9.88617L106.767 9.60091L107.207 9.09588C107.448 8.81815 107.867 8.44935 108.137 8.27643C108.802 7.85152 108.763 7.764 107.91 7.764H107.184L107.18 8.193C107.177 8.62847 106.433 9.612 106.108 9.612C105.96 9.612 106.016 8.72721 106.206 8.061C106.289 7.771 106.266 7.764 105.252 7.764L104.214 7.76413V10.013Z" fill="white"/>
<path fill-rule="evenodd" clip-rule="evenodd" d="M107.844 18.4786C107.252 18.6456 106.77 19.174 106.244 20.2311C105.609 21.5063 104.55 22.548 103.889 22.548C103.632 22.548 103.62 22.4699 103.62 20.8461C103.62 19.0404 103.64 18.984 104.291 18.984C104.452 18.984 104.544 18.8924 104.544 18.7323C104.544 18.4985 104.43 18.4804 102.96 18.4804C101.49 18.4804 101.376 18.4985 101.376 18.7323C101.376 18.8924 101.468 18.984 101.629 18.984C102.321 18.984 102.3 18.8631 102.3 22.8838V26.6232L101.871 26.6647C101.556 26.6949 101.432 26.7781 101.403 26.9761C101.366 27.2355 101.428 27.2463 102.96 27.2463C104.492 27.2463 104.554 27.2355 104.517 26.9761C104.488 26.7781 104.364 26.6949 104.049 26.6647L103.62 26.6232V23.208H103.941C104.819 23.208 105.449 23.7669 106.15 25.166C106.392 25.65 106.634 26.0658 106.689 26.09C106.744 26.1142 106.789 26.2033 106.79 26.288C106.795 26.6078 107.412 27.0096 108.11 27.1471C109.188 27.3594 111.738 27.2772 111.738 27.0301C111.738 26.9245 111.545 26.7811 111.309 26.7117C110.877 26.5844 110.667 25.8633 111.002 25.6563C111.069 25.6149 111.166 25.3889 111.218 25.1541C111.269 24.9192 111.403 24.5338 111.516 24.2975L111.721 23.868H113.02C114.317 23.868 114.319 23.8685 114.45 24.231C114.522 24.4306 114.638 24.7128 114.707 24.858C114.89 25.2419 115.232 26.2844 115.234 26.4646C115.235 26.5494 115.058 26.6582 114.84 26.706C114.584 26.7622 114.444 26.8746 114.444 27.0243C114.444 27.2353 114.613 27.253 116.391 27.2277C118.558 27.1968 119.073 27.0854 119.542 26.5465C120.053 25.961 120.112 25.8773 120.274 25.523C120.358 25.3387 120.476 25.188 120.537 25.188C120.598 25.188 120.648 25.1305 120.648 25.0601C120.648 24.9899 120.894 24.5741 121.194 24.1361C121.68 23.429 121.79 23.34 122.184 23.34H122.628V26.6106L122.158 26.6989C121.812 26.7638 121.699 26.8461 121.731 27.0105C121.768 27.205 121.97 27.234 123.288 27.234C124.606 27.234 124.808 27.205 124.845 27.0105C124.877 26.8459 124.764 26.7637 124.416 26.6985L123.944 26.6099L123.979 22.83L124.014 19.05L124.443 19.0087C124.765 18.9777 124.872 18.9035 124.872 18.7125C124.872 18.3639 120.847 18.3925 120.186 18.7459C118.346 19.7289 118.272 21.6095 120.028 22.7442C120.25 22.8878 120.368 23.0584 120.325 23.172C120.25 23.3675 119.325 24.8074 119.2 24.924C119.161 24.9603 118.955 25.247 118.742 25.561C118.205 26.3512 117.798 26.64 117.219 26.64C116.67 26.64 116.644 26.6037 116.065 24.99C115.883 24.4818 115.622 23.8168 115.485 23.5123C115.348 23.2077 115.236 22.9033 115.236 22.836C115.236 22.7292 115.133 22.4667 114.579 21.162C114.517 21.0168 114.306 20.4386 114.108 19.8771C113.609 18.4546 113.461 18.287 113.104 18.7401C112.833 19.0835 112.712 19.3643 111.743 21.888C111.478 22.5777 111.176 23.3292 111.071 23.5579C110.966 23.7867 110.88 24.0317 110.88 24.1022C110.88 24.2348 110.522 25.1021 110.064 26.079C109.807 26.6255 109.784 26.64 109.162 26.64C108.375 26.64 107.947 26.1944 107.378 24.783C107.176 24.2797 106.967 23.868 106.914 23.868C106.862 23.868 106.789 23.7543 106.753 23.6154C106.684 23.3527 105.829 22.7447 105.412 22.6617C105.195 22.6185 105.203 22.5832 105.491 22.284C106.029 21.7262 106.599 20.927 106.91 20.2959C107.297 19.5079 107.564 19.3409 108.039 19.5879C108.591 19.8741 108.871 19.8188 109.099 19.3788C109.323 18.9447 109.186 18.456 108.84 18.456C108.74 18.456 108.578 18.4317 108.482 18.402C108.385 18.3723 108.098 18.4068 107.844 18.4786ZM120.186 20.8434C120.186 19.8396 120.37 19.5079 121.109 19.177C121.327 19.0792 121.744 19.0105 122.034 19.0245L122.562 19.05L122.599 20.8811L122.636 22.7123L121.833 22.6543C120.621 22.5665 120.186 22.0888 120.186 20.8434ZM112.595 21.3799C112.596 21.282 112.699 20.985 112.825 20.7199C113.012 20.3258 113.063 20.286 113.105 20.502C113.133 20.6472 113.217 20.9145 113.291 21.096C113.445 21.4715 114.047 23.1248 114.047 23.175C114.048 23.1931 113.578 23.208 113.003 23.208H111.957L112.083 22.7527C112.152 22.5023 112.295 22.131 112.402 21.9277C112.508 21.7243 112.595 21.4779 112.595 21.3799Z" fill="white"/>
<path d="M95.7158 18.6082C94.2861 19.0194 93.0208 20.5192 92.7758 22.0934C92.2256 25.6274 95.2507 28.1151 98.8477 27.0866C99.7342 26.8331 100.001 26.6251 100.108 26.1041C100.152 25.8906 100.225 25.5373 100.269 25.3188C100.451 24.4306 99.875 24.4154 99.5984 25.3011C98.9661 27.3259 95.2299 27.0359 94.5772 24.9115C94.5236 24.7368 94.4152 24.5136 94.3363 24.4154C94.2575 24.3171 94.1691 23.6901 94.1399 23.0219C94.0796 21.6417 94.338 20.8093 95.094 19.9504C96.4098 18.4553 98.9818 18.715 99.5376 20.399C99.6389 20.7059 99.7539 20.8323 99.9037 20.8011C100.138 20.7523 100.148 20.6031 99.9987 19.3646L99.9093 18.623L99.2237 18.5406C98.227 18.4209 96.2334 18.4593 95.7158 18.6082Z" fill="white"/>
<path d="M69.6309 18.489C69.4964 19.0588 69.3312 20.5028 69.3891 20.601C69.5375 20.8523 69.7839 20.6458 70.0195 20.0725C70.3951 19.1588 70.6526 18.9936 71.709 18.9884L72.6 18.984V26.6106L72.138 26.6973C71.819 26.7572 71.676 26.8554 71.676 27.0151C71.676 27.2224 71.8392 27.2463 73.26 27.2463C74.6808 27.2463 74.844 27.2224 74.844 27.0151C74.844 26.8554 74.701 26.7572 74.382 26.6973L73.92 26.6106V18.984L74.811 18.9882C75.3082 18.9906 75.7967 19.0645 75.9164 19.1556C76.1619 19.3425 76.692 20.2838 76.692 20.533C76.692 20.7499 77.0832 20.7517 77.1032 20.535C77.1201 20.3517 77.1133 20.2728 76.979 19.088C76.8955 18.3521 76.8553 18.2645 76.6235 18.315C76.0126 18.4481 70.3076 18.4604 70.1761 18.3289C69.9493 18.1021 69.7052 18.1739 69.6309 18.489Z" fill="white"/>
<path d="M79.101 18.5543C77.7702 18.6019 77.5023 18.7944 78.3441 19.0988L78.8081 19.2666L78.7731 22.9119L78.738 26.5574L78.309 26.6684C78.0076 26.7465 77.88 26.857 77.88 27.0398C77.88 27.291 77.9815 27.2999 80.817 27.298C84.0835 27.2958 84.0221 27.3091 84.1555 26.5737C84.2082 26.2835 84.3324 25.8856 84.4317 25.6896C84.6825 25.1938 84.6571 24.924 84.3597 24.924C84.1912 24.924 84.0115 25.1223 83.8183 25.5216C83.4053 26.3748 83.0363 26.5257 81.4744 26.4798L80.19 26.442L80.1529 24.825L80.1158 23.208H81.0331C82.1882 23.208 82.3339 23.267 82.569 23.8296C82.9091 24.6435 83.094 24.3084 83.094 22.878C83.094 21.4973 82.9191 21.1295 82.6026 21.8446C82.3416 22.434 82.1124 22.5393 81.081 22.5438L80.124 22.548V19.248H81.4527C82.9458 19.248 83.2045 19.3353 83.4033 19.9052C83.497 20.1742 83.6304 20.304 83.8131 20.304C84.1247 20.304 84.1262 20.2967 83.9579 19.6593C83.8886 19.3968 83.7985 19.0186 83.7574 18.819L83.683 18.456L82.0025 18.4835C81.0782 18.4985 79.7725 18.5304 79.101 18.5543Z" fill="white"/>
<path d="M85.536 18.7254C85.536 18.9018 85.6522 18.9785 85.965 19.0087L86.394 19.05L86.429 22.845C86.4589 26.0885 86.4362 26.64 86.2726 26.64C85.8796 26.64 85.4097 26.8971 85.4779 27.0749C85.5918 27.3718 88.6197 27.3108 88.6775 27.0105C88.7091 26.8459 88.5962 26.7637 88.2482 26.6985L87.776 26.6099L87.811 22.83L87.846 19.05L88.308 19.0125C88.9268 18.9625 89.9055 19.4674 90.1377 19.9566C90.8612 21.481 90.0787 23.076 88.6074 23.076C88.0592 23.076 87.8833 23.2252 88.2005 23.4212C88.4121 23.5519 89.7876 23.5059 90.1746 23.355C92.4668 22.4619 92.1116 19.059 89.678 18.5975C88.4119 18.3574 85.536 18.4462 85.536 18.7254Z" fill="white"/>
<path d="M100.254 31.92C100.117 32.1424 100.316 32.316 100.71 32.316C101.24 32.316 101.244 32.3472 101.244 36.2113C101.244 39.9874 101.222 40.104 100.509 40.104C100.312 40.104 100.188 40.1803 100.188 40.302C100.188 40.4674 100.459 40.5 101.838 40.5C103.158 40.5 103.488 40.4633 103.488 40.3167C103.488 40.2117 103.291 40.0963 103.026 40.0467C102.406 39.9303 102.37 39.2974 102.947 38.6317C103.157 38.3888 103.725 37.7148 104.209 37.134C105.048 36.1283 105.839 35.1951 106.493 34.4421L106.791 34.098L106.757 37.002L106.722 39.906L106.293 40.0323C105.339 40.313 105.801 40.5 107.448 40.5C108.712 40.5 109.032 40.4629 109.032 40.3167C109.032 40.2129 108.838 40.097 108.586 40.0497C107.994 39.9387 107.976 39.8226 107.976 36.144C107.976 32.4884 107.998 32.3442 108.551 32.2903C108.819 32.2641 108.979 32.169 109.008 32.019C109.047 31.8094 108.904 31.788 107.458 31.788C105.969 31.788 105.864 31.8049 105.864 32.0437C105.864 32.2356 105.971 32.3095 106.293 32.3407C107.1 32.4184 106.96 32.9756 105.785 34.362C105.232 35.0154 104.533 35.8409 104.232 36.1965C103.932 36.5521 103.627 36.9087 103.554 36.9887C103.481 37.0687 103.228 37.3602 102.99 37.6367L102.559 38.139L102.594 35.2617L102.63 32.3844L103.024 32.3163C103.259 32.2757 103.437 32.1546 103.463 32.0179C103.514 31.753 100.416 31.6584 100.254 31.92Z" fill="white"/>
<path d="M93.192 32.0437C93.192 32.2356 93.2989 32.3095 93.621 32.3407L94.05 32.382V39.906L93.621 40.0323C92.6674 40.313 93.1292 40.5 94.776 40.5C96.4228 40.5 96.8846 40.313 95.931 40.0323L95.502 39.906V32.382L96.256 32.4073C97.2469 32.4406 97.6994 32.771 98.0115 33.6891C98.4919 35.1024 97.6264 36.4013 96.1968 36.4124L95.634 36.4168L95.9616 36.6893C96.7416 37.3382 98.5814 36.5801 99.1761 35.3647C99.4166 34.8734 99.4827 33.372 99.264 33.372C99.1914 33.372 99.132 33.2899 99.132 33.1897C99.132 32.8547 98.2905 32.1795 97.6276 31.9827C96.5424 31.6604 93.192 31.7064 93.192 32.0437Z" fill="white"/>
<path d="M83.424 32.0437C83.424 32.2356 83.5309 32.3095 83.853 32.3407L84.282 32.382V39.906L83.853 40.0323C82.8994 40.313 83.3612 40.5 85.008 40.5C86.6534 40.5 87.1146 40.3139 86.1671 40.0323C85.3178 39.7798 85.4831 39.2242 86.856 37.716C87.3262 37.1995 87.7663 36.6762 88.5073 35.7529C89.3472 34.7064 89.7187 34.296 89.826 34.296C89.8623 34.296 89.892 35.5413 89.892 37.0634C89.892 40.0736 89.8842 40.104 89.1087 40.104C88.9543 40.104 88.836 40.1899 88.836 40.302C88.836 40.4674 89.1074 40.5 90.486 40.5C91.798 40.5 92.136 40.4628 92.136 40.3185C92.136 40.2187 91.9569 40.1012 91.7378 40.0574C91.1356 39.9369 91.08 39.6062 91.08 36.144C91.08 32.7 91.1352 32.3572 91.7001 32.2924C91.922 32.267 92.07 32.1708 92.07 32.052C92.07 31.8537 89.4507 31.6758 89.0117 31.8442C88.7077 31.9609 88.9779 32.2998 89.4082 32.3415C90.1117 32.4097 89.9226 33.513 89.0962 34.164C89.0501 34.2003 88.5142 34.824 87.9053 35.55C87.2963 36.276 86.7212 36.9493 86.6271 37.0465C86.533 37.1435 86.3013 37.4256 86.1123 37.6735C85.9233 37.9212 85.7163 38.124 85.6523 38.124C85.4951 38.124 85.5033 33.0792 85.6611 32.6641C85.7459 32.4411 85.9053 32.3211 86.1551 32.2924C86.3795 32.2666 86.5409 32.1596 86.5676 32.019C86.6073 31.8094 86.4641 31.788 85.0176 31.788C83.5293 31.788 83.424 31.8049 83.424 32.0437Z" fill="white"/>
<path fill-rule="evenodd" clip-rule="evenodd" d="M78.012 31.7803C76.0794 31.842 75.702 31.8863 75.702 32.052C75.702 32.174 75.8539 32.2673 76.0976 32.2949C76.6862 32.3617 76.6878 32.3722 76.69 36.1002C76.6923 39.9865 76.7003 39.9337 76.0852 40.0491C75.8166 40.0995 75.636 40.2113 75.636 40.3272C75.636 40.6768 80.2879 40.5059 81.0081 40.1299C81.8426 39.6941 82.2759 39.0452 82.3419 38.1323C82.463 36.4562 81.369 35.616 79.0654 35.616H77.88V32.4774L78.3532 32.3886C79.7087 32.1344 80.8888 32.5853 81.3367 33.5287C81.6244 34.1347 81.8655 34.3112 82.0338 34.0389C82.0763 33.9701 81.9461 33.4207 81.7446 32.8179L81.378 31.722L80.85 31.7143C80.5596 31.7101 79.2825 31.7398 78.012 31.7803ZM77.946 39.774L77.9093 37.959L77.8726 36.144H78.5197C80.0572 36.144 81.0538 36.9705 81.0459 38.2391C81.0386 39.3969 79.6202 40.3528 78.4894 39.9618L77.946 39.774Z" fill="white"/>
<path d="M65.8929 32.0179C65.9192 32.1546 66.0974 32.2757 66.3316 32.3163L66.726 32.3845L66.761 36.1719L66.7961 39.9593L66.332 40.0463C66.0659 40.0962 65.868 40.2116 65.868 40.3167C65.868 40.4633 66.1981 40.5 67.518 40.5C68.8966 40.5 69.168 40.4674 69.168 40.302C69.168 40.1899 69.0497 40.104 68.8953 40.104C67.8797 40.104 67.8999 39.2922 68.9417 38.2345C69.0373 38.1373 69.4035 37.7016 69.7553 37.266C70.1072 36.8304 70.4308 36.4443 70.4745 36.408C70.5182 36.3717 70.8188 36.0153 71.1423 35.616C71.9265 34.6483 72.2498 34.301 72.369 34.2982C72.4235 34.2971 72.468 35.5045 72.468 36.9815C72.468 39.8932 72.416 40.104 71.6986 40.104C71.5319 40.104 71.412 40.1868 71.412 40.302C71.412 40.4674 71.6834 40.5 73.062 40.5C74.4406 40.5 74.712 40.4674 74.712 40.302C74.712 40.1853 74.5902 40.1032 74.415 40.102C73.7278 40.0973 73.725 40.0839 73.6805 36.644C73.6283 32.5998 73.66 32.3454 74.2239 32.2908C74.493 32.2648 74.646 32.1782 74.646 32.052C74.646 31.8537 72.0267 31.6758 71.5877 31.8442C71.3179 31.9479 71.5396 32.316 71.872 32.316C72.5702 32.316 72.6218 32.998 71.9779 33.7164C71.7755 33.9421 71.3933 34.3876 71.1283 34.7064C69.6395 36.4982 69.1829 37.0325 68.6086 37.6551L68.1152 38.19L68.1466 35.286L68.178 32.382L68.5736 32.3371C68.9717 32.2918 69.2062 32.0886 69.0855 31.8933C69.0497 31.8354 68.3068 31.788 67.4346 31.788C65.9979 31.788 65.8528 31.8097 65.8929 32.0179Z" fill="white"/>
<path d="M60.1267 31.9522C57.1431 32.9904 56.2288 37.0578 58.4702 39.3218C59.3455 40.2059 60.2881 40.5393 61.8772 40.5271C62.8249 40.5198 63.3579 40.4545 63.647 40.3103C63.8744 40.1968 64.131 40.104 64.2171 40.104C64.5938 40.104 65.02 38.1361 64.6878 37.9309C64.4989 37.8141 64.196 38.1845 64.0859 38.6664C63.9339 39.3315 62.7367 40.1043 61.8584 40.1039C61.4588 40.1037 60.3847 39.6758 60.0212 39.3718C58.1488 37.8063 58.1428 34.4198 60.0097 32.8901C61.3609 31.7829 63.7626 32.2958 64.0843 33.7602C64.1457 34.0397 64.251 34.164 64.4264 34.164C64.7713 34.164 64.7874 33.9767 64.5471 32.7619L64.3871 31.9539L63.4851 31.8049C62.1663 31.5871 61.033 31.6369 60.1267 31.9522Z" fill="white"/>
</g>
<defs>
<clipPath id="clip0_8_1058">
<rect width="132" height="47.784" fill="white" transform="translate(0 0.108002)"/>
</clipPath>
</defs>
</svg>
