<svg width="120" height="37" viewBox="0 0 120 37" fill="none" xmlns="http://www.w3.org/2000/svg">
<path fill-rule="evenodd" clip-rule="evenodd" d="M15.7355 3.12697C14.5312 4.36645 12.5901 6.36401 11.4217 7.56613L9.29732 9.75165L8.45278 9.19989C7.98827 8.89629 7.54264 8.648 7.46238 8.648C7.38213 8.648 7.11443 8.54425 6.86733 8.4174C6.21987 8.08529 3.44813 8.08529 2.80067 8.4174C2.55357 8.54425 2.28587 8.648 2.20562 8.648C1.82915 8.648 0.412 9.73357 0.412 10.022C0.412 10.2362 1.26248 11.1456 3.45764 13.2786C9.65464 19.3003 9.35157 18.9616 8.92494 19.3883C8.54558 19.7675 7.80387 21.4044 7.65735 22.1854C7.48443 23.1073 7.59584 25.0219 7.85178 25.527C7.94854 25.7178 8.16766 26.1534 8.33873 26.4949C8.6723 27.1607 9.31276 27.92 9.54072 27.92C9.61742 27.92 10.4015 27.1702 11.2831 26.254C12.2773 25.2212 13.2736 24.1904 14.272 23.1617C18.6507 18.6554 18.4156 18.859 18.76 19.274C18.8504 19.3829 19.0062 19.472 19.1061 19.472C19.2062 19.472 19.288 19.5166 19.288 19.5713C19.288 19.9582 21.5595 20.6604 22.8063 20.6589C24.295 20.6574 26.5187 19.7929 27.1288 18.9785L27.3797 18.6437L24.7528 16.0734C23.2717 14.6242 21.7911 13.1745 20.311 11.7243C19.3128 10.7459 18.496 9.88893 18.496 9.82003C18.496 9.69331 18.8849 9.03371 19.0313 8.912C19.1936 8.77697 19.5816 7.896 19.8361 7.08393C20.2474 5.77146 20.0675 3.66909 19.4473 2.5401C18.2815 0.417538 18.3838 0.401302 15.7355 3.12697ZM10.4452 11.42C10.4082 11.3837 10.3033 11.2203 10.2119 11.057C10.0201 10.7143 10.1347 10.677 10.5294 10.9534C12.0511 12.0193 15.3049 12.0193 16.8266 10.9534C17.3157 10.611 17.4541 10.7211 17.1604 11.2187C16.0745 13.0593 16.1999 16.2692 17.412 17.6578C17.7366 18.0296 17.5253 18.0486 16.8991 17.704C15.1235 16.7267 12.7585 16.7537 10.8746 17.773C10.4814 17.9857 10.1851 18.1135 10.2166 18.057C11.0094 16.6242 11.1498 16.1077 11.16 14.588C11.1693 13.1617 10.8706 11.8377 10.4452 11.42Z" fill="white"/>
<path d="M12.853 27.8177C9.49532 31.1778 6.748 33.9919 6.748 34.0711C6.748 34.4096 8.90396 35.6581 10.048 35.982C10.3747 36.0746 10.7055 36.1976 10.7831 36.2554C11.2279 36.5871 15.6195 36.5899 16.0314 36.2587C16.1164 36.1905 16.3939 36.09 16.648 36.0356C16.9021 35.9812 17.317 35.8259 17.57 35.6904C17.8231 35.5549 18.0747 35.444 18.129 35.444C18.4572 35.444 20.813 33.7722 21.829 32.8184C22.3854 32.2959 22.4235 32.0626 22.1181 31.0468C21.9815 30.5889 21.8495 30.1296 21.7221 29.669C21.6175 29.2879 21.4425 28.6641 21.3332 28.283C21.2239 27.9019 21.0792 27.3524 21.0117 27.062C20.9442 26.7716 20.763 26.0885 20.6089 25.544C20.2055 24.1177 19.9546 23.1947 19.7654 22.442C19.4477 21.1778 19.6284 21.0374 12.853 27.8177Z" fill="white"/>
<path d="M36.448 14.723C36.448 14.8987 36.5371 14.984 36.7207 14.984C37.4835 14.984 37.4738 14.9323 37.4061 18.6421C37.3369 22.4223 37.3092 22.5481 36.5133 22.6974C36.1634 22.763 36.0469 22.8461 36.078 23.0076C36.1455 23.3576 39.22 23.3657 39.22 23.0161C39.22 22.8626 39.0901 22.7485 38.857 22.6976C38.6574 22.6537 38.4198 22.5951 38.329 22.5671C38.1474 22.5112 38.135 21.3713 38.2796 18.0314C38.3727 15.8827 38.3422 15.8831 39.1654 18.02C39.4311 18.7097 39.7599 19.5232 39.8962 19.8277C40.0325 20.1323 40.144 20.4703 40.144 20.579C40.144 20.6876 40.1968 20.809 40.2613 20.849C40.3259 20.8889 40.4193 21.0833 40.469 21.2812C40.5186 21.4789 40.6737 21.8921 40.8136 22.1991C40.9536 22.5063 41.068 22.8129 41.068 22.8806C41.068 22.9484 41.1481 23.0702 41.2459 23.1514C41.5256 23.3836 41.7643 23.0158 42.52 21.188C42.8781 20.3219 43.0722 19.8725 43.4358 19.0673C43.5855 18.7358 43.708 18.3647 43.708 18.2423C43.708 18.1201 43.7626 18.02 43.8296 18.02C43.8964 18.02 43.9889 17.8476 44.0352 17.6369C44.1456 17.1341 44.5923 16.2635 44.6709 16.3973C44.7842 16.5896 44.9083 22.3079 44.8024 22.4547C44.745 22.5343 44.5308 22.6403 44.3263 22.6904C44.0702 22.7531 43.968 22.8519 43.998 23.0078C44.0595 23.3271 47.206 23.3544 47.206 23.0356C47.206 22.927 47.0147 22.7816 46.7811 22.7129C46.2176 22.5469 46.2048 22.5001 46.0757 20.132C45.8339 15.6968 45.9141 14.984 46.6554 14.984C46.788 14.984 46.876 14.8787 46.876 14.72C46.876 14.4737 46.788 14.456 45.5664 14.456H44.257L44.1629 14.8845C44.1111 15.1201 43.9926 15.4914 43.8995 15.7095C43.8066 15.9275 43.6035 16.4327 43.4481 16.832C43.2929 17.2313 43.1123 17.6768 43.0468 17.822C42.9813 17.9672 42.7729 18.4721 42.5836 18.944C42.3943 19.4159 42.1614 19.9802 42.0658 20.198C41.9702 20.4158 41.8619 20.6831 41.8249 20.792C41.7644 20.9703 41.6316 20.7264 41.0708 19.406C40.8942 18.9901 40.0124 16.7084 39.719 15.908C39.1874 14.4578 39.2809 14.526 37.7766 14.492C36.5312 14.4641 36.448 14.4786 36.448 14.723Z" fill="white"/>
<path fill-rule="evenodd" clip-rule="evenodd" d="M51.5963 14.6232C51.3627 14.8061 51.1026 15.3758 50.3776 17.294C50.1031 18.02 49.797 18.8012 49.6972 19.0299C49.5976 19.2587 49.516 19.5063 49.516 19.5802C49.516 19.6542 49.4297 19.8828 49.3242 20.0883C49.2189 20.2938 48.9978 20.8184 48.833 21.254C48.413 22.3648 48.243 22.5976 47.7851 22.6892C47.4943 22.7473 47.3965 22.8333 47.4289 23.0017C47.4956 23.3473 50.0858 23.3409 50.1524 22.9949C50.1834 22.8339 50.0798 22.7461 49.7899 22.6882C49.3113 22.5925 49.2441 22.0484 49.5965 21.122C49.707 20.8316 49.8328 20.4752 49.8761 20.33C49.9989 19.9186 50.1583 19.8722 51.4568 19.87L52.6716 19.868L52.8699 20.297C53.6987 22.0913 53.7672 22.584 53.2046 22.7076C52.9258 22.7688 52.8143 22.8633 52.8432 23.014C52.9081 23.3508 55.852 23.3562 55.852 23.0196C55.852 22.8771 55.6799 22.7357 55.39 22.64C55.1359 22.5562 54.928 22.3992 54.928 22.2913C54.928 22.1833 54.8034 21.7869 54.6512 21.4104C54.4973 21.0296 54.3468 20.6475 54.1998 20.264C54.1037 20.0099 53.8125 19.2661 53.5526 18.6111C53.2927 17.9561 53.078 17.3621 53.0755 17.2911C53.073 17.2201 52.9563 16.9244 52.816 16.634C52.6757 16.3436 52.559 16.0056 52.5565 15.8828C52.554 15.76 52.4972 15.6257 52.4302 15.5843C52.3631 15.5429 52.2702 15.3355 52.2237 15.1237C52.1101 14.6065 51.8663 14.412 51.5963 14.6232ZM50.8738 17.756C50.9922 17.4293 51.1532 16.9887 51.2316 16.777C51.404 16.3114 51.6532 16.5563 51.8251 17.36C51.8793 17.6141 51.9975 17.9705 52.0874 18.152C52.1774 18.3335 52.2901 18.6454 52.338 18.845L52.425 19.208H51.3789C50.2911 19.208 50.1553 19.0863 50.5683 18.482C50.6179 18.4094 50.7553 18.0827 50.8738 17.756Z" fill="white"/>
<path d="M59.152 14.5759C55.5888 15.804 54.9077 20.5919 58.0111 22.5963C59.3466 23.4588 61.5767 23.5303 63.0634 22.7581C63.4163 22.5751 63.8563 20.9867 63.63 20.714C63.413 20.4525 63.1466 20.6323 63.0589 21.0996C62.8046 22.4556 60.7874 23.1585 59.3247 22.4009C57.2494 21.3262 56.8196 17.657 58.5588 15.8615C59.5896 14.7974 61.5091 14.6512 62.3877 15.5702C62.6544 15.8491 62.98 16.4314 62.98 16.6294C62.98 16.748 63.0964 16.832 63.261 16.832C63.5304 16.832 63.5382 16.7921 63.4501 15.875C63.3994 15.3486 63.2754 14.8335 63.1747 14.7304C62.9601 14.5108 59.7038 14.3856 59.152 14.5759Z" fill="white"/>
<path d="M55.7609 0.996093C55.0455 1.14024 54.004 1.80525 54.004 2.11796C54.004 2.16245 53.922 2.28072 53.822 2.38091C53.3608 2.84211 53.4191 4.56273 53.9152 5.13126C54.4726 5.77027 55.7852 5.70387 56.2892 5.0114C56.6354 4.53554 56.5457 3.84413 56.1301 3.78539C55.8417 3.7446 55.8214 3.77614 55.8958 4.14839C55.9946 4.64154 55.821 4.6847 55.6093 4.2198C55.1632 3.24102 55.7574 1.388 56.5171 1.388C56.7619 1.388 56.776 1.48819 56.776 3.22518V5.06249L56.3363 5.33427C55.9016 5.60289 54.8912 6.63249 54.0135 7.70103C53.5441 8.27259 53.0409 8.42413 52.7104 8.0936C52.4765 7.8597 52.5161 7.7475 52.849 7.70024C53.3387 7.63068 53.2182 7.2587 52.7133 7.2818C51.1587 7.35321 51.2082 9.79086 52.7723 10.1834C53.8146 10.4449 54.6346 9.73436 55.605 7.72862C55.9726 6.96896 56.394 6.19676 56.5412 6.01262L56.809 5.678L56.7159 7.031C56.6647 7.77522 56.6544 8.384 56.693 8.384C57.202 8.384 58.1204 8.04107 58.3914 7.74987C58.7197 7.3969 58.7231 7.36853 58.8004 4.33952C58.8433 2.65956 58.8954 1.20426 58.9161 1.10552C58.9614 0.891022 56.6754 0.811821 55.7609 0.996093Z" fill="white"/>
<path d="M60.2085 3.863C60.2088 3.91752 60.3276 4.15644 60.4725 4.39417C61.0441 5.33163 60.5665 6.8 59.6902 6.8C59.4452 6.8 59.416 6.87881 59.416 7.5425V8.285L59.823 8.20356C60.616 8.04503 61.132 6.73994 61.132 4.893C61.132 4.05057 61.1408 4.028 61.4736 4.028H61.8152L61.7706 6.14502L61.726 8.26217L62.716 8.22402C63.6898 8.18666 63.7052 8.18059 63.654 7.856C63.5553 7.2294 63.5855 4.35708 63.694 4.061L63.8027 3.764H62.0054C61.0168 3.764 60.2083 3.80849 60.2085 3.863Z" fill="white"/>
<path d="M64.1797 3.97613C64.4498 4.30164 64.557 4.50518 65.7813 7.01859C66.5094 8.51336 66.354 8.77301 64.729 8.77855C64.3087 8.78 64.3 8.79215 64.3 9.374V9.968L64.795 9.96708C65.5758 9.96576 66.2523 9.4074 66.713 8.384C68.01 5.50337 68.4118 4.67493 68.6976 4.292L68.944 3.962L68.9057 4.58465C68.859 5.34325 68.9471 5.46495 69.1948 4.98474C69.4366 4.51627 69.844 4.1699 70.16 4.16436C70.3976 4.16027 70.4065 4.26111 70.341 6.21141L70.2721 8.26296L71.1998 8.22441L72.1276 8.186L72.0993 6.173C72.0751 4.44974 72.0999 4.16 72.2712 4.16C72.4835 4.16 73.408 5.04163 73.408 5.24399C73.408 5.30985 73.4652 5.32833 73.535 5.28517C73.6163 5.23488 73.6163 5.08651 73.535 4.87267C73.4652 4.68906 73.408 4.36447 73.408 4.15142V3.764H67.8806L67.9536 4.21386C68.0176 4.60893 67.4788 6.14 67.2757 6.14C67.0756 6.14 66.5251 4.59151 66.5878 4.20488L66.6594 3.764H65.3316C64.1269 3.764 64.02 3.78367 64.1797 3.97613Z" fill="white"/>
<path fill-rule="evenodd" clip-rule="evenodd" d="M75.2206 3.76453C75.0196 3.82499 74.6335 4.09611 74.3626 4.36698C73.8749 4.85472 73.87 4.87016 73.87 5.9288C73.87 7.62909 74.4313 8.186 76.145 8.186H77.2322L77.7649 7.65312C78.6419 6.77624 78.6752 5.24517 77.8367 4.35602C77.2063 3.68757 76.2189 3.46436 75.2206 3.76453ZM75.85 7.77667C75.501 7.51742 75.4449 4.3716 75.7853 4.15631C76.4315 3.7479 76.637 4.18257 76.637 5.95811C76.637 7.67239 76.4114 8.19366 75.85 7.77667Z" fill="white"/>
<path fill-rule="evenodd" clip-rule="evenodd" d="M79.777 3.92016C79.0109 4.17716 78.7659 4.42532 79.084 4.622C79.2737 4.73922 79.2597 9.34351 79.0691 9.53412C78.7766 9.82663 79.1071 9.968 80.0827 9.968H81.0658L80.9831 9.077L80.9002 8.186L81.6047 8.23365C82.4309 8.28962 82.9843 8.04489 83.4573 7.41473C83.8905 6.83736 83.9215 4.82977 83.506 4.26019C83.0329 3.61167 81.6629 3.44799 81.1342 3.97665C80.9526 4.15829 80.932 4.15103 80.932 3.90537C80.932 3.56957 80.8177 3.57102 79.777 3.92016ZM81.0121 7.64718C80.9031 7.36325 80.91 4.754 81.02 4.64405C81.2023 4.46162 81.7199 4.56577 81.8514 4.81129C82.0793 5.23725 82.0252 7.4039 81.7806 7.64863C81.5136 7.91553 81.1148 7.91487 81.0121 7.64718Z" fill="white"/>
<path fill-rule="evenodd" clip-rule="evenodd" d="M85.75 3.76968C84.4835 4.18429 83.8508 5.9787 84.5561 7.15627C85.4558 8.65856 88.0043 8.59124 88.7758 7.04473C88.9973 6.60068 89.0674 5.084 88.8662 5.084C88.8016 5.084 88.7133 4.94316 88.6701 4.77103C88.4674 3.96319 86.8517 3.40919 85.75 3.76968ZM86.2858 7.60692C86.0347 7.12155 86.0003 4.87531 86.2359 4.35813C86.6798 3.38397 87.3496 4.67058 87.2359 6.27939C87.1353 7.70631 86.6719 8.35377 86.2858 7.60692Z" fill="white"/>
<path fill-rule="evenodd" clip-rule="evenodd" d="M89.71 6.02239V8.28065L91.4542 8.22969C92.9639 8.18561 93.2479 8.14191 93.5662 7.90511C94.212 7.42489 94.0771 6.008 93.3855 6.008C93.1172 6.008 93.1725 5.79984 93.4984 5.58336C93.9402 5.29005 93.901 4.48631 93.425 4.07684C93.0836 3.78327 92.9583 3.764 91.3856 3.764L89.71 3.76413V6.02239ZM92.0274 5.33414C91.7373 5.87626 91.492 5.67101 91.492 4.886C91.492 4.25359 91.5253 4.16 91.7501 4.16C92.0711 4.16 92.2502 4.91781 92.0274 5.33414ZM92.0785 7.56257C91.6775 8.13531 91.492 7.93586 91.492 6.932C91.492 5.93897 91.6311 5.77661 92.0567 6.27345C92.3394 6.60385 92.3492 7.1762 92.0785 7.56257Z" fill="white"/>
<path d="M96.0595 3.7607C94.5817 4.23537 94.0283 6.54392 95.1158 7.69668C95.5249 8.1303 95.638 8.17623 96.3992 8.21755C97.4015 8.27193 97.7444 8.11683 98.267 7.37328C98.6801 6.78575 98.7165 6.32639 98.3185 6.72437C97.4419 7.60098 95.848 6.58418 95.848 5.14842C95.848 3.90419 96.8202 3.60732 97.7163 4.57791C97.9955 4.88046 98.224 5.21059 98.224 5.3117C98.224 5.41281 98.2834 5.45888 98.356 5.414C98.5279 5.30787 98.528 3.93626 98.3563 3.83013C98.121 3.6848 96.4528 3.63438 96.0595 3.7607Z" fill="white"/>
<path d="M99.214 6.01302V8.26203L100.204 8.22402C101.106 8.18943 101.191 8.16237 101.163 7.922C100.973 6.31899 100.968 6.14 101.107 6.14C101.189 6.14 101.322 6.40136 101.402 6.7208C101.667 7.77179 102.147 8.186 103.098 8.186C103.894 8.186 104.53 7.8531 103.93 7.75146C103.799 7.72941 103.548 7.38331 103.342 6.94217C103.037 6.29061 102.887 6.12733 102.374 5.88617L101.767 5.60091L102.207 5.09588C102.448 4.81815 102.867 4.44935 103.137 4.27643C103.802 3.85152 103.763 3.764 102.91 3.764H102.184L102.18 4.193C102.177 4.62847 101.433 5.612 101.108 5.612C100.96 5.612 101.016 4.72721 101.206 4.061C101.289 3.771 101.266 3.764 100.252 3.764L99.214 3.76413V6.01302Z" fill="white"/>
<path fill-rule="evenodd" clip-rule="evenodd" d="M102.844 14.4786C102.252 14.6456 101.77 15.174 101.244 16.2311C100.609 17.5063 99.5501 18.548 98.8886 18.548C98.6324 18.548 98.62 18.4699 98.62 16.8461C98.62 15.0404 98.6403 14.984 99.2908 14.984C99.4519 14.984 99.544 14.8924 99.544 14.7323C99.544 14.4985 99.4303 14.4804 97.96 14.4804C96.4897 14.4804 96.376 14.4985 96.376 14.7323C96.376 14.8924 96.4681 14.984 96.6292 14.984C97.3209 14.984 97.3 14.8631 97.3 18.8838V22.6232L96.871 22.6647C96.5564 22.6949 96.4317 22.7781 96.4033 22.9761C96.3662 23.2355 96.428 23.2463 97.96 23.2463C99.492 23.2463 99.5538 23.2355 99.5167 22.9761C99.4883 22.7781 99.3635 22.6949 99.049 22.6647L98.62 22.6232V19.208H98.9414C99.8191 19.208 100.449 19.7669 101.15 21.166C101.392 21.65 101.634 22.0658 101.689 22.09C101.744 22.1142 101.789 22.2033 101.79 22.288C101.795 22.6078 102.412 23.0096 103.11 23.1471C104.188 23.3594 106.738 23.2772 106.738 23.0301C106.738 22.9245 106.545 22.7811 106.309 22.7117C105.877 22.5844 105.667 21.8633 106.002 21.6563C106.069 21.6149 106.166 21.3889 106.218 21.1541C106.269 20.9192 106.403 20.5338 106.516 20.2975L106.721 19.868H108.02C109.317 19.868 109.319 19.8685 109.45 20.231C109.522 20.4306 109.638 20.7128 109.707 20.858C109.89 21.2419 110.232 22.2844 110.234 22.4646C110.235 22.5494 110.058 22.6582 109.84 22.706C109.584 22.7622 109.444 22.8746 109.444 23.0243C109.444 23.2353 109.613 23.253 111.391 23.2277C113.558 23.1968 114.073 23.0854 114.542 22.5465C115.053 21.961 115.112 21.8773 115.274 21.523C115.358 21.3387 115.476 21.188 115.537 21.188C115.598 21.188 115.648 21.1305 115.648 21.0601C115.648 20.9899 115.894 20.5741 116.194 20.1361C116.68 19.429 116.79 19.34 117.184 19.34H117.628V22.6106L117.158 22.6989C116.812 22.7638 116.699 22.8461 116.731 23.0105C116.768 23.205 116.97 23.234 118.288 23.234C119.606 23.234 119.808 23.205 119.845 23.0105C119.877 22.8459 119.764 22.7637 119.416 22.6985L118.944 22.6099L118.979 18.83L119.014 15.05L119.443 15.0087C119.765 14.9777 119.872 14.9035 119.872 14.7125C119.872 14.3639 115.847 14.3925 115.186 14.7459C113.346 15.7289 113.272 17.6095 115.028 18.7442C115.25 18.8878 115.368 19.0584 115.325 19.172C115.25 19.3675 114.325 20.8074 114.2 20.924C114.161 20.9603 113.955 21.247 113.742 21.561C113.205 22.3512 112.798 22.64 112.219 22.64C111.67 22.64 111.644 22.6037 111.065 20.99C110.883 20.4818 110.622 19.8168 110.485 19.5123C110.348 19.2077 110.236 18.9033 110.236 18.836C110.236 18.7292 110.133 18.4667 109.579 17.162C109.517 17.0168 109.306 16.4386 109.108 15.8771C108.609 14.4546 108.461 14.287 108.104 14.7401C107.833 15.0835 107.712 15.3643 106.743 17.888C106.478 18.5777 106.176 19.3292 106.071 19.5579C105.966 19.7867 105.88 20.0317 105.88 20.1022C105.88 20.2348 105.522 21.1021 105.064 22.079C104.807 22.6255 104.784 22.64 104.162 22.64C103.375 22.64 102.947 22.1944 102.378 20.783C102.176 20.2797 101.967 19.868 101.914 19.868C101.862 19.868 101.789 19.7543 101.753 19.6154C101.684 19.3527 100.829 18.7447 100.412 18.6617C100.195 18.6185 100.203 18.5832 100.491 18.284C101.029 17.7262 101.599 16.927 101.91 16.2959C102.297 15.5079 102.564 15.3409 103.039 15.5879C103.591 15.8741 103.871 15.8188 104.099 15.3788C104.323 14.9447 104.186 14.456 103.84 14.456C103.74 14.456 103.578 14.4317 103.482 14.402C103.385 14.3723 103.098 14.4068 102.844 14.4786ZM115.186 16.8434C115.186 15.8396 115.37 15.5079 116.109 15.177C116.327 15.0792 116.744 15.0105 117.034 15.0245L117.562 15.05L117.599 16.8811L117.636 18.7123L116.833 18.6543C115.621 18.5665 115.186 18.0888 115.186 16.8434ZM107.595 17.3799C107.596 17.282 107.699 16.985 107.825 16.7199C108.012 16.3258 108.063 16.286 108.105 16.502C108.133 16.6472 108.217 16.9145 108.291 17.096C108.445 17.4715 109.047 19.1248 109.047 19.175C109.048 19.1931 108.578 19.208 108.003 19.208H106.957L107.083 18.7527C107.152 18.5023 107.295 18.131 107.402 17.9277C107.508 17.7243 107.595 17.4779 107.595 17.3799Z" fill="white"/>
<path d="M90.7158 14.6082C89.2861 15.0194 88.0208 16.5192 87.7758 18.0934C87.2256 21.6274 90.2507 24.1151 93.8477 23.0866C94.7342 22.8331 95.001 22.6251 95.1081 22.1041C95.1521 21.8906 95.2246 21.5373 95.2692 21.3188C95.4507 20.4306 94.875 20.4154 94.5984 21.3011C93.9661 23.3259 90.2299 23.0359 89.5772 20.9115C89.5236 20.7368 89.4152 20.5136 89.3363 20.4154C89.2575 20.3171 89.1691 19.6901 89.1399 19.0219C89.0796 17.6417 89.338 16.8093 90.094 15.9504C91.4098 14.4553 93.9818 14.715 94.5376 16.399C94.6389 16.7059 94.7539 16.8323 94.9037 16.8011C95.138 16.7523 95.1479 16.6031 94.9987 15.3646L94.9093 14.623L94.2237 14.5406C93.227 14.4209 91.2334 14.4593 90.7158 14.6082Z" fill="white"/>
<path d="M64.6309 14.489C64.4964 15.0588 64.3312 16.5028 64.3891 16.601C64.5375 16.8523 64.7839 16.6458 65.0195 16.0725C65.3951 15.1588 65.6526 14.9936 66.709 14.9884L67.6 14.984V22.6106L67.138 22.6973C66.819 22.7572 66.676 22.8554 66.676 23.0151C66.676 23.2224 66.8392 23.2463 68.26 23.2463C69.6808 23.2463 69.844 23.2224 69.844 23.0151C69.844 22.8554 69.701 22.7572 69.382 22.6973L68.92 22.6106V14.984L69.811 14.9882C70.3082 14.9906 70.7967 15.0645 70.9164 15.1556C71.1619 15.3425 71.692 16.2838 71.692 16.533C71.692 16.7499 72.0832 16.7517 72.1032 16.535C72.1201 16.3517 72.1133 16.2728 71.979 15.088C71.8955 14.3521 71.8553 14.2645 71.6235 14.315C71.0126 14.4481 65.3076 14.4604 65.1761 14.3289C64.9493 14.1021 64.7052 14.1739 64.6309 14.489Z" fill="white"/>
<path d="M74.101 14.5543C72.7702 14.6019 72.5023 14.7944 73.3441 15.0988L73.8081 15.2666L73.7731 18.9119L73.738 22.5574L73.309 22.6684C73.0076 22.7465 72.88 22.857 72.88 23.0398C72.88 23.291 72.9815 23.2999 75.817 23.298C79.0835 23.2958 79.0221 23.3091 79.1555 22.5737C79.2082 22.2835 79.3324 21.8856 79.4317 21.6896C79.6825 21.1938 79.6571 20.924 79.3597 20.924C79.1912 20.924 79.0115 21.1223 78.8183 21.5216C78.4053 22.3748 78.0363 22.5257 76.4744 22.4798L75.19 22.442L75.1529 20.825L75.1158 19.208H76.0331C77.1882 19.208 77.3339 19.267 77.569 19.8296C77.9091 20.6435 78.094 20.3084 78.094 18.878C78.094 17.4973 77.9191 17.1295 77.6026 17.8446C77.3416 18.434 77.1124 18.5393 76.081 18.5438L75.124 18.548V15.248H76.4527C77.9458 15.248 78.2045 15.3353 78.4033 15.9052C78.497 16.1742 78.6304 16.304 78.8131 16.304C79.1247 16.304 79.1262 16.2967 78.9579 15.6593C78.8886 15.3968 78.7985 15.0186 78.7574 14.819L78.683 14.456L77.0025 14.4835C76.0782 14.4985 74.7725 14.5304 74.101 14.5543Z" fill="white"/>
<path d="M80.536 14.7254C80.536 14.9018 80.6522 14.9785 80.965 15.0087L81.394 15.05L81.429 18.845C81.4589 22.0885 81.4362 22.64 81.2726 22.64C80.8796 22.64 80.4097 22.8971 80.4779 23.0749C80.5918 23.3718 83.6197 23.3108 83.6775 23.0105C83.7091 22.8459 83.5962 22.7637 83.2482 22.6985L82.776 22.6099L82.811 18.83L82.846 15.05L83.308 15.0125C83.9268 14.9625 84.9055 15.4674 85.1377 15.9566C85.8612 17.481 85.0787 19.076 83.6074 19.076C83.0592 19.076 82.8833 19.2252 83.2005 19.4212C83.4121 19.5519 84.7876 19.5059 85.1746 19.355C87.4668 18.4619 87.1116 15.059 84.678 14.5975C83.4119 14.3574 80.536 14.4462 80.536 14.7254Z" fill="white"/>
<path d="M95.254 27.92C95.1166 28.1424 95.3163 28.316 95.7097 28.316C96.2398 28.316 96.244 28.3472 96.244 32.2113C96.244 35.9874 96.222 36.104 95.5086 36.104C95.3117 36.104 95.188 36.1803 95.188 36.302C95.188 36.4674 95.4594 36.5 96.838 36.5C98.1579 36.5 98.488 36.4633 98.488 36.3167C98.488 36.2117 98.2907 36.0963 98.026 36.0467C97.4057 35.9303 97.3701 35.2974 97.9465 34.6317C98.1568 34.3888 98.7251 33.7148 99.2094 33.134C100.048 32.1283 100.839 31.1951 101.493 30.4421L101.791 30.098L101.757 33.002L101.722 35.906L101.293 36.0323C100.339 36.313 100.801 36.5 102.448 36.5C103.712 36.5 104.032 36.4629 104.032 36.3167C104.032 36.2129 103.838 36.097 103.586 36.0497C102.994 35.9387 102.976 35.8226 102.976 32.144C102.976 28.4884 102.998 28.3442 103.551 28.2903C103.819 28.2641 103.979 28.169 104.008 28.019C104.047 27.8094 103.904 27.788 102.458 27.788C100.969 27.788 100.864 27.8049 100.864 28.0437C100.864 28.2356 100.971 28.3095 101.293 28.3407C102.1 28.4184 101.96 28.9756 100.785 30.362C100.232 31.0154 99.5331 31.8409 99.2325 32.1965C98.9319 32.5521 98.6266 32.9087 98.554 32.9887C98.4814 33.0687 98.2278 33.3602 97.9904 33.6367L97.5589 34.139L97.5944 31.2617L97.63 28.3844L98.0244 28.3163C98.2586 28.2757 98.4368 28.1546 98.4631 28.0179C98.5141 27.753 95.4157 27.6584 95.254 27.92Z" fill="white"/>
<path d="M88.192 28.0437C88.192 28.2356 88.2989 28.3095 88.621 28.3407L89.05 28.382V35.906L88.621 36.0323C87.6674 36.313 88.1292 36.5 89.776 36.5C91.4228 36.5 91.8846 36.313 90.931 36.0323L90.502 35.906V28.382L91.256 28.4073C92.2469 28.4406 92.6994 28.771 93.0115 29.6891C93.4919 31.1024 92.6264 32.4013 91.1968 32.4124L90.634 32.4168L90.9616 32.6893C91.7416 33.3382 93.5814 32.5801 94.1761 31.3647C94.4166 30.8734 94.4827 29.372 94.264 29.372C94.1914 29.372 94.132 29.2899 94.132 29.1897C94.132 28.8547 93.2905 28.1795 92.6276 27.9827C91.5424 27.6604 88.192 27.7064 88.192 28.0437Z" fill="white"/>
<path d="M78.424 28.0437C78.424 28.2356 78.5309 28.3095 78.853 28.3407L79.282 28.382V35.906L78.853 36.0323C77.8994 36.313 78.3612 36.5 80.008 36.5C81.6534 36.5 82.1146 36.3139 81.1671 36.0323C80.3178 35.7798 80.4831 35.2242 81.856 33.716C82.3262 33.1995 82.7663 32.6762 83.5073 31.7529C84.3472 30.7064 84.7187 30.296 84.826 30.296C84.8623 30.296 84.892 31.5413 84.892 33.0634C84.892 36.0736 84.8842 36.104 84.1087 36.104C83.9543 36.104 83.836 36.1899 83.836 36.302C83.836 36.4674 84.1074 36.5 85.486 36.5C86.798 36.5 87.136 36.4628 87.136 36.3185C87.136 36.2187 86.9569 36.1012 86.7378 36.0574C86.1356 35.9369 86.08 35.6062 86.08 32.144C86.08 28.7 86.1352 28.3572 86.7001 28.2924C86.922 28.267 87.07 28.1708 87.07 28.052C87.07 27.8537 84.4507 27.6758 84.0117 27.8442C83.7077 27.9609 83.9779 28.2998 84.4082 28.3415C85.1117 28.4097 84.9226 29.513 84.0962 30.164C84.0501 30.2003 83.5142 30.824 82.9053 31.55C82.2963 32.276 81.7212 32.9493 81.6271 33.0465C81.533 33.1435 81.3013 33.4256 81.1123 33.6735C80.9233 33.9212 80.7163 34.124 80.6523 34.124C80.4951 34.124 80.5033 29.0792 80.6611 28.6641C80.7459 28.4411 80.9053 28.3211 81.1551 28.2924C81.3795 28.2666 81.5409 28.1596 81.5676 28.019C81.6073 27.8094 81.4641 27.788 80.0176 27.788C78.5293 27.788 78.424 27.8049 78.424 28.0437Z" fill="white"/>
<path fill-rule="evenodd" clip-rule="evenodd" d="M73.012 27.7803C71.0794 27.842 70.702 27.8863 70.702 28.052C70.702 28.174 70.8539 28.2673 71.0976 28.2949C71.6862 28.3617 71.6878 28.3722 71.69 32.1002C71.6923 35.9865 71.7003 35.9337 71.0852 36.0491C70.8166 36.0995 70.636 36.2113 70.636 36.3272C70.636 36.6768 75.2879 36.5059 76.0081 36.1299C76.8426 35.6941 77.2759 35.0452 77.3419 34.1323C77.463 32.4562 76.369 31.616 74.0654 31.616H72.88V28.4774L73.3532 28.3886C74.7087 28.1344 75.8888 28.5853 76.3367 29.5287C76.6244 30.1347 76.8655 30.3112 77.0338 30.0389C77.0763 29.9701 76.9461 29.4207 76.7446 28.8179L76.378 27.722L75.85 27.7143C75.5596 27.7101 74.2825 27.7398 73.012 27.7803ZM72.946 35.774L72.9093 33.959L72.8726 32.144H73.5197C75.0572 32.144 76.0538 32.9705 76.0459 34.2391C76.0386 35.3969 74.6202 36.3528 73.4894 35.9618L72.946 35.774Z" fill="white"/>
<path d="M60.8929 28.0179C60.9192 28.1546 61.0974 28.2757 61.3316 28.3163L61.726 28.3845L61.761 32.1719L61.7961 35.9593L61.332 36.0463C61.0659 36.0962 60.868 36.2116 60.868 36.3167C60.868 36.4633 61.1981 36.5 62.518 36.5C63.8966 36.5 64.168 36.4674 64.168 36.302C64.168 36.1899 64.0497 36.104 63.8953 36.104C62.8797 36.104 62.8999 35.2922 63.9417 34.2345C64.0373 34.1373 64.4035 33.7016 64.7553 33.266C65.1072 32.8304 65.4308 32.4443 65.4745 32.408C65.5182 32.3717 65.8188 32.0153 66.1423 31.616C66.9265 30.6483 67.2498 30.301 67.369 30.2982C67.4235 30.2971 67.468 31.5045 67.468 32.9815C67.468 35.8932 67.416 36.104 66.6986 36.104C66.5319 36.104 66.412 36.1868 66.412 36.302C66.412 36.4674 66.6834 36.5 68.062 36.5C69.4406 36.5 69.712 36.4674 69.712 36.302C69.712 36.1853 69.5902 36.1032 69.415 36.102C68.7278 36.0973 68.725 36.0839 68.6805 32.644C68.6283 28.5998 68.66 28.3454 69.2239 28.2908C69.493 28.2648 69.646 28.1782 69.646 28.052C69.646 27.8537 67.0267 27.6758 66.5877 27.8442C66.3179 27.9479 66.5396 28.316 66.872 28.316C67.5702 28.316 67.6218 28.998 66.9779 29.7164C66.7755 29.9421 66.3933 30.3876 66.1283 30.7064C64.6395 32.4982 64.1829 33.0325 63.6086 33.6551L63.1152 34.19L63.1466 31.286L63.178 28.382L63.5736 28.3371C63.9717 28.2918 64.2062 28.0886 64.0855 27.8933C64.0497 27.8354 63.3068 27.788 62.4346 27.788C60.9979 27.788 60.8528 27.8097 60.8929 28.0179Z" fill="white"/>
<path d="M55.1267 27.9522C52.1431 28.9904 51.2288 33.0578 53.4702 35.3218C54.3455 36.2059 55.2881 36.5393 56.8772 36.5271C57.8249 36.5198 58.3579 36.4545 58.647 36.3103C58.8744 36.1968 59.131 36.104 59.2171 36.104C59.5938 36.104 60.02 34.1361 59.6878 33.9309C59.4989 33.8141 59.196 34.1845 59.0859 34.6664C58.9339 35.3315 57.7367 36.1043 56.8584 36.1039C56.4588 36.1037 55.3847 35.6758 55.0212 35.3718C53.1488 33.8063 53.1428 30.4198 55.0097 28.8901C56.3609 27.7829 58.7626 28.2958 59.0843 29.7602C59.1457 30.0397 59.251 30.164 59.4264 30.164C59.7713 30.164 59.7874 29.9767 59.5471 28.7619L59.3871 27.9539L58.4851 27.8049C57.1663 27.5871 56.033 27.6369 55.1267 27.9522Z" fill="white"/>
</svg>
