<svg width="76" height="76" viewBox="0 0 76 76" fill="none" xmlns="http://www.w3.org/2000/svg">
<path fill-rule="evenodd" clip-rule="evenodd" d="M0 76.0007H76V0H0V76.0007ZM37.6946 13.0091C36.7064 21.8916 35.2442 26.6799 32.3805 30.4128C29.3806 34.3233 22.496 36.906 12.8563 37.7372C9.46996 38.0291 9.45563 38.0327 11.0359 38.1911C18.0095 38.89 20.0481 39.2282 23.5013 40.2589C32.4882 42.9415 35.9446 48.255 37.5463 61.8504C37.805 64.0471 38.0416 66.0499 38.0721 66.3009C38.1026 66.552 38.2021 65.4633 38.2931 63.8817C38.5604 59.2383 39.7159 53.6038 41.086 50.2616C44.3353 42.336 49.4203 39.7653 64.9641 38.1893L66.5569 38.0277L64.3952 37.8511C58.5093 37.3695 53.1297 36.2825 50.3375 35.0103C49.6769 34.709 49.0582 34.4628 48.9629 34.4628C48.5963 34.4628 45.3577 32.2524 44.6236 31.5013C41.1795 27.9769 38.7991 20.6542 38.2783 11.9821L38.1138 9.24333L37.6946 13.0091Z" fill="#EA3223"/>
</svg>
