<svg width="342" height="69" viewBox="0 0 342 69" fill="none" xmlns="http://www.w3.org/2000/svg">
<g clip-path="url(#clip0_33_186)">
<path d="M342 0.78418H-67.1786V68.7842H342V0.78418Z" fill="white"/>
<path fill-rule="evenodd" clip-rule="evenodd" d="M0 68.7842H70.2321V0.78418H0V68.7842ZM34.8339 12.4238C33.9206 20.3712 32.5693 24.6554 29.9231 27.9954C27.1509 31.4943 20.7887 33.805 11.8807 34.5487C8.7513 34.8099 8.73798 34.8132 10.1985 34.9549C16.6427 35.5802 18.5265 35.8827 21.7178 36.805C30.0225 39.2053 33.2166 43.9593 34.6968 56.1236C34.9358 58.089 35.1546 59.881 35.1827 60.1055C35.2108 60.3301 35.3029 59.356 35.3868 57.9409C35.6339 53.7864 36.7018 48.745 37.9679 45.7547C40.9705 38.6635 45.6695 36.3632 60.0337 34.9533L61.5058 34.8087L59.508 34.6505C54.0688 34.2198 49.0976 33.2471 46.5172 32.109C45.9069 31.8394 45.3351 31.619 45.2468 31.619C44.9082 31.619 41.9153 29.6413 41.2371 28.9693C38.0542 25.8159 35.8546 19.2641 35.3733 11.5049L35.2212 9.05444L34.8339 12.4238Z" fill="#EA3223"/>
<path fill-rule="evenodd" clip-rule="evenodd" d="M100.796 15.188L97.7662 18.2585L99.821 20.3292L101.876 22.3999L100.909 23.3933C100.377 23.9396 99.8436 24.3863 99.7242 24.3863C99.6046 24.3863 98.6314 23.497 97.5612 22.4101L95.6158 20.434L92.6831 23.3952C91.0703 25.0239 89.7505 26.4195 89.7505 26.4966C89.7505 26.6804 95.4998 32.4963 95.6815 32.4963C95.7584 32.4963 96.6894 31.6103 97.7501 30.5277C98.9178 29.3359 99.7725 28.6178 99.9162 28.7081C100.047 28.7901 100.535 29.2812 101.001 29.7993L101.848 30.7414L92.2533 40.4399C86.9762 45.7738 82.3923 50.4208 82.0669 50.7659L81.4753 51.3935L84.4292 54.4224L87.3832 57.451L95.5058 49.2365C99.9731 44.7187 103.707 41.022 103.804 41.022C103.901 41.022 107.565 44.6713 111.947 49.1318C116.328 53.5923 120.021 57.2416 120.154 57.2416C120.286 57.2416 121.696 55.9182 123.287 54.301L126.179 51.3604L115.954 41.0153L105.729 30.6705L106.791 29.5668L107.854 28.4632L109.904 30.5293L111.955 32.5954L114.984 29.5305L118.014 26.4658L115.008 23.425L112.002 20.3841L110.04 22.3853C108.961 23.4857 107.998 24.3863 107.9 24.3863C107.802 24.3863 107.279 23.9308 106.736 23.3739L105.751 22.3618L107.721 20.3754C108.804 19.2828 109.69 18.3103 109.69 18.2138C109.69 18.1175 108.371 16.7064 106.758 15.0782L103.827 12.1177L100.796 15.188ZM102.745 17.1676L101.672 18.2664L102.656 19.2471C103.851 20.4373 103.812 20.4357 104.903 19.3525C106 18.2639 105.999 18.2418 104.801 17.0487L103.818 16.0686L102.745 17.1676ZM94.6107 25.3958C93.4466 26.5915 93.4468 26.5872 94.5378 27.6703C95.6201 28.7448 95.6106 28.745 96.7087 27.6262C97.7711 26.5438 97.7421 26.2562 96.4608 25.1729L95.5654 24.4155L94.6107 25.3958ZM102.745 25.4855L101.672 26.5842L102.656 27.5649C103.861 28.7657 103.887 28.7661 104.936 27.6142C105.984 26.4639 105.99 26.5505 104.801 25.3664L103.818 24.3863L102.745 25.4855ZM110.85 25.4619L109.851 26.5194L110.882 27.5626L111.914 28.6059L112.431 28.1938C112.716 27.9671 113.201 27.4792 113.508 27.1096L114.067 26.4378L113.069 25.4121C111.867 24.1784 112.067 24.1738 110.85 25.4619ZM84.3984 31.7759L81.4286 34.7856L84.459 37.8507L87.4893 40.9163L90.501 37.8695L93.5128 34.8229L90.8528 32.1522C89.3898 30.683 88.0073 29.3202 87.7806 29.1236C87.3799 28.7763 87.2846 28.8512 84.3984 31.7759ZM117.09 31.7693L114.114 34.7856L117.147 37.8516L120.181 40.9179L123.197 37.8488L126.214 34.7795L123.246 31.7676C121.613 30.1113 120.23 28.7552 120.172 28.7546C120.114 28.7538 118.727 30.1105 117.09 31.7693ZM86.3457 33.7571L85.3411 34.7891L86.4152 35.8756L87.4893 36.962L88.5624 35.8766L89.6356 34.7912L88.8193 33.9392C87.5312 32.5946 87.4815 32.5908 86.3457 33.7571ZM102.806 33.6266C101.669 34.8611 101.669 34.9043 102.76 35.988C103.839 37.059 103.733 37.0613 104.858 35.9394C106 34.8012 106.003 34.8815 104.759 33.6418L103.733 32.6196L102.806 33.6266ZM119.041 33.7467L118.026 34.7891L119.1 35.8756L120.174 36.962L121.248 35.8756L122.323 34.7891L121.308 33.7467C120.749 33.1734 120.239 32.7043 120.174 32.7043C120.109 32.7043 119.599 33.1734 119.041 33.7467ZM98.9895 37.5468C97.509 38.8996 97.5026 39.1263 98.9134 40.2956L99.8171 41.045L100.84 39.9942L101.862 38.9434L100.915 37.9033C99.8013 36.6804 99.9144 36.7015 98.9895 37.5468ZM106.707 37.9056L105.692 38.948L106.766 40.0344L107.84 41.1209L108.914 40.0344L109.989 38.948L108.974 37.9056C108.415 37.3322 107.905 36.8631 107.84 36.8631C107.775 36.8631 107.265 37.3322 106.707 37.9056ZM94.5299 41.9587C93.4472 43.0689 93.4433 43.0088 94.6734 44.2346L95.6906 45.2478L96.7404 44.1802L97.7902 43.1127L96.7838 42.0674C95.5864 40.8239 95.6345 40.8262 94.5299 41.9587ZM110.967 41.9136C109.883 43.0307 109.888 43.2182 111.03 44.3522L111.958 45.2737L113.029 44.1902L114.1 43.1069L113.085 42.0644C111.864 40.8105 112.026 40.822 110.967 41.9136ZM90.4373 46.1641C89.3488 47.3634 89.3386 47.1742 90.5588 48.3901L91.5729 49.4002L92.5084 48.4863C93.661 47.3602 93.6666 47.1867 92.5857 46.0725C91.5137 44.9675 91.5235 44.9671 90.4373 46.1641ZM98.8203 50.2504C96.0931 53.0108 93.8619 55.3659 93.8619 55.4844C93.8619 55.6027 94.2572 56.092 94.7405 56.5717L95.6188 57.4437L99.6206 53.3918C101.822 51.1633 103.716 49.3414 103.83 49.3437C103.944 49.3458 105.83 51.1708 108.021 53.3989L112.004 57.4502L112.903 56.5692C113.397 56.0847 113.802 55.6273 113.802 55.5524C113.802 55.4777 111.547 53.1251 108.79 50.324L103.779 45.2314L98.8203 50.2504ZM114.93 46.2233L113.915 47.2657L114.989 48.3522L116.063 49.4388L117.137 48.3522L118.211 47.2657L117.196 46.2233C116.638 45.65 116.128 45.1809 116.063 45.1809C115.998 45.1809 115.488 45.65 114.93 46.2233ZM86.3776 50.2679C85.2176 51.4081 85.2147 51.3207 86.4543 52.5557L87.4749 53.5727L88.5465 52.4887L89.6181 51.4046L88.6127 50.3722C87.3978 49.1243 87.5341 49.1308 86.3776 50.2679ZM119.455 49.9327C119.116 50.252 118.66 50.7196 118.441 50.9722L118.044 51.4309L118.947 52.3609C120.069 53.5176 120.28 53.517 121.408 52.3546L122.317 51.4184L121.305 50.3791C120.123 49.1652 120.24 49.1933 119.455 49.9327Z" fill="#EA3223" stroke="#EA3223"/>
<mask id="mask0_33_186" style="mask-type:luminance" maskUnits="userSpaceOnUse" x="137" y="0" width="69" height="70">
<path d="M205.607 0.440918H137.411V69.4712H205.607V0.440918Z" fill="white"/>
</mask>
<g mask="url(#mask0_33_186)">
<path fill-rule="evenodd" clip-rule="evenodd" d="M137.411 35.1671V69.8935H205.607V0.440918H137.411V35.1671ZM169.229 10.4183C156.851 11.918 147.57 22.4774 147.57 35.0611C147.57 46.5681 155.084 56.3419 166.139 59.2167C169.412 60.0675 174.348 60.0631 177.706 59.2071C182.909 57.8795 187.636 54.8237 190.83 50.7212C191.925 49.315 194.207 45.5859 194.207 45.2019C194.207 45.1021 194.398 44.5877 194.634 44.0589C196.203 40.5288 196.509 36.8403 196.44 22.3175L196.382 10.3172L183.427 10.2923C176.303 10.2788 169.913 10.3352 169.229 10.4183ZM171.751 15.9983C171.186 21.3623 169.594 26.2728 167.534 29.0078C165.443 31.7819 160.747 33.7905 154.326 34.656C152.042 34.964 152.116 35.0891 154.823 35.4956C157.153 35.8453 160.655 36.6583 161.503 37.0459C161.875 37.2166 162.709 37.5954 163.356 37.8878C168.074 40.0238 170.441 44.5561 171.696 53.8577L171.953 55.7693L172.216 53.5391C173.672 41.2012 177.443 37.2287 189.437 35.4021C191.331 35.1135 192.079 34.8486 191 34.8486C189.717 34.8486 183.834 33.6809 182.909 33.2424C182.568 33.0804 181.87 32.7989 181.36 32.6167C176.595 30.9143 173.551 26.1838 172.548 18.9191C172.361 17.5757 172.142 16.0465 172.057 15.5208L171.903 14.5651L171.751 15.9983Z" fill="#EA3223"/>
</g>
<path fill-rule="evenodd" clip-rule="evenodd" d="M240.158 17.573C237.255 20.5607 234.716 23.0986 234.517 23.2128C234.241 23.3717 233.893 23.2548 233.039 22.7154C230.369 21.0302 227.64 20.8624 224.785 22.2076C222.541 23.2654 222.426 23.5786 223.835 24.8312C224.448 25.3781 225.388 26.2495 225.919 26.7684C226.453 27.2872 228.519 29.2634 230.513 31.1599C232.671 33.2117 234.138 34.7667 234.138 34.9996C234.138 35.2147 233.841 35.8208 233.477 36.3465C232.267 38.0922 231.863 40.9737 232.525 43.1533C232.891 44.3668 234.14 46.2602 234.572 46.2602C234.756 46.2602 235.882 45.2462 237.075 44.0071C241.215 39.7059 246.037 34.9424 246.252 34.9424C246.37 34.9424 246.675 35.1366 246.931 35.3738C249.158 37.45 254.17 37.5048 256.841 35.4827C257.827 34.7368 257.791 34.5651 256.368 33.2568C255.7 32.6422 253.576 30.6242 251.648 28.7726C249.718 26.921 247.701 25.0011 247.161 24.5061C246.257 23.6777 245.863 22.7862 246.403 22.7862C246.527 22.7862 246.975 22.0553 247.397 21.1618C248.492 18.8516 248.523 16.4918 247.489 14.3074C246.707 12.655 246.263 12.0875 245.775 12.1189C245.591 12.1308 243.063 14.5851 240.158 17.573ZM244.277 24.5506C241.535 25.9561 238.632 25.9814 235.974 24.6229C234.938 24.0937 234.825 24.2334 235.486 25.2296C236.964 27.4529 236.974 30.8313 235.515 33.4215C234.944 34.4361 234.982 34.4778 235.94 33.8905C238.649 32.2301 242.395 32.2756 245.049 34.001C245.489 34.2876 245.447 34.1333 244.658 32.589C243.383 30.0969 243.343 27.8031 244.536 25.5382C244.967 24.7163 245.3 24.0482 245.275 24.0536C245.248 24.0588 244.8 24.2825 244.277 24.5506ZM239.007 46.5647C229.921 55.5837 230.486 54.5759 233.672 56.0782C239.413 58.7857 246.068 57.4199 250.69 52.5854L251.292 51.9538L250.962 50.941C250.78 50.3838 250.394 49.0321 250.104 47.9369C247.818 39.3041 247.632 38.715 247.184 38.715C247.035 38.715 243.356 42.2473 239.007 46.5647Z" fill="#EA3223"/>
<mask id="mask1_33_186" style="mask-type:luminance" maskUnits="userSpaceOnUse" x="273" y="0" width="69" height="70">
<path d="M342 0.440918H273.804V69.4712H342V0.440918Z" fill="white"/>
</mask>
<g mask="url(#mask1_33_186)">
<path fill-rule="evenodd" clip-rule="evenodd" d="M273.181 34.9557V69.2611H342.415V0.650391H273.181V34.9557ZM311.114 9.36962C302.935 11.1189 297.948 17.045 297.968 24.9894C297.985 31.0595 300.871 34.5085 306.174 34.8012C309.894 35.0065 312.982 33.3533 314.313 30.4446C315.683 27.4545 314.095 24.1275 311.823 25.2247C310.843 25.6976 310.884 26.6332 311.932 27.7839C313.164 29.1381 312.904 29.8519 311.305 29.4967C309.701 29.1399 308.937 26.8769 308.939 22.4714C308.939 15.6656 311.252 11.4397 315.317 10.8228L316.219 10.686L316.599 13.5888C316.884 15.7808 317.001 18.3748 317.073 24.1814L317.168 31.871L316.161 32.4569C312.821 34.4043 309.872 36.8179 307.168 39.818C305.811 41.3244 305.008 42.3025 302.456 45.5515C300.016 48.657 297.711 50.3773 295.988 50.3773C294.394 50.3773 292.457 48.9662 292.126 47.5644L291.982 46.9541L293.453 47.0924C295.306 47.267 296.14 46.7547 295.889 45.5951C295.337 43.0468 291.487 43.9577 288.796 47.2745C284.497 52.5743 288.836 60.9309 295.879 60.9153C300.887 60.9045 304.198 57.8952 308.117 49.7925C311.788 42.1987 312.573 40.6842 313.861 38.7096C314.604 37.5681 315.603 36.2093 316.079 35.6901L316.944 34.7459L316.841 36.5293C316.724 38.5925 315.962 46.2341 315.672 48.2626C315.36 50.4591 315.327 50.3773 316.482 50.3773C317.994 50.3773 320.754 49.7925 322.552 49.0915C324.729 48.242 326.005 47.1695 326.853 45.4749L327.535 44.1156L327.391 36.9129C327.198 27.2035 327.652 15.7068 328.42 10.8266C328.566 9.90339 328.644 9.07734 328.595 8.99068C328.544 8.90422 325.125 8.83939 321.001 8.84673C313.877 8.85933 313.378 8.88555 311.114 9.36962Z" fill="#EA3223"/>
</g>
</g>
<defs>
<clipPath id="clip0_33_186">
<rect width="342" height="68" fill="white" transform="translate(0 0.78418)"/>
</clipPath>
</defs>
</svg>
