<svg width="76" height="77" viewBox="0 0 76 77" fill="none" xmlns="http://www.w3.org/2000/svg">
<path fill-rule="evenodd" clip-rule="evenodd" d="M-0.692993 38.5V76.269H76.462V0.730957H-0.692993V38.5ZM41.5806 10.3305C32.4647 12.2564 26.9061 18.7808 26.9301 27.5273C26.9484 34.2102 30.1632 38.0077 36.0755 38.3299C40.2195 38.5559 43.661 36.7358 45.1452 33.5334C46.6709 30.2414 44.9024 26.5786 42.3701 27.7865C41.2789 28.3069 41.323 29.3372 42.4907 30.604C43.865 32.0949 43.5737 32.8808 41.7924 32.4897C40.0044 32.097 39.1548 29.6054 39.1553 24.7553C39.156 17.2622 41.7346 12.6096 46.2635 11.9304L47.2679 11.7798L47.6913 14.9758C48.011 17.389 48.1406 20.2449 48.2203 26.6377L48.3261 35.1037L47.2055 35.7489C43.4822 37.8929 40.1962 40.5501 37.1834 43.8532C35.6706 45.5116 34.7743 46.5885 31.9304 50.1656C29.2122 53.5847 26.6425 55.4787 24.722 55.4787C22.946 55.4787 20.788 53.9249 20.42 52.3816L20.2599 51.7099L21.8977 51.8621C23.9638 52.0543 24.8927 51.4902 24.6125 50.2136C23.9961 47.4079 19.7083 48.4109 16.7089 52.0626C11.9165 57.8973 16.7519 67.0977 24.6018 67.0806C30.1836 67.0686 33.8729 63.7555 38.2393 54.8346C42.3316 46.4742 43.2061 44.8068 44.6407 42.6328C45.4697 41.3762 46.582 39.8802 47.1122 39.3085L48.0759 38.2689L47.9627 40.2325C47.832 42.5039 46.9837 50.9171 46.6605 53.1504C46.3108 55.5685 46.2762 55.4787 47.5612 55.4787C49.2469 55.4787 52.3243 54.8346 54.3259 54.0631C56.7517 53.1278 58.174 51.9469 59.1209 50.0813L59.8806 48.5846L59.7205 40.6548C59.5046 29.9651 60.01 17.3075 60.8672 11.9346C61.0294 10.9182 61.116 10.0087 61.0599 9.91333C61.0035 9.81815 57.1954 9.74677 52.5973 9.75486C44.6582 9.76872 44.1033 9.79759 41.5806 10.3305Z" fill="#EA3223"/>
</svg>
