<svg width="54" height="54" viewBox="0 0 54 54" fill="none" xmlns="http://www.w3.org/2000/svg">
<path fill-rule="evenodd" clip-rule="evenodd" d="M14.7814 1.91906V3.6212L13.0179 3.68784L11.2544 3.75449V10.6014L13.0179 10.668L14.7814 10.7347V14.3672H18.4222V17.7715L20.1857 17.8381L21.9492 17.9048L22.0156 19.6736L22.0821 21.4423H25.2486V3.65954L23.4851 3.5929L21.7216 3.52626L21.6547 1.87159L21.5878 0.216919H14.7814V1.91906ZM32.5302 1.92865V3.64037H29.117V21.4423H32.5302V24.8658H50.279V21.4423H53.6923V14.3672H50.279V10.9437H43.225V14.3672H39.5842V10.7347L41.3477 10.668L43.1112 10.6014V3.75449L41.3477 3.68784L39.5842 3.6212V0.216919H32.5302V1.92865ZM4.08659 12.6555V14.3672H0.445801V21.4423H4.08659V24.8658H21.6079V21.4423H18.1946V18.0381L16.4311 17.9714L14.6676 17.9048L14.6012 16.136L14.5347 14.3672H11.1406V10.9437H4.08659V12.6555ZM35.9435 16.0789V17.7906H32.5302V21.4423H36.171V18.0189H39.5842V14.3672H35.9435V16.0789ZM25.4762 23.1541V24.8658H28.8894V21.4423H25.4762V23.1541ZM22.0629 26.8057V28.5175H25.2486V25.094H22.0629V26.8057ZM29.117 26.7957V28.5175H32.5502L32.5302 26.8628L32.5402 25.094H30.8236L29.117 25.0739V26.7957ZM4.03925 30.5145L3.9728 32.2833L2.20931 32.3499L0.445801 32.4166V39.2443H4.06747L4.13391 41.0131L4.20036 42.7819H11.0268L11.0933 41.0131L11.1597 39.2443H14.5347L14.6012 37.4755L14.6676 35.7067L16.4311 35.6401L18.1946 35.5734V32.1692H21.6079V28.7457H4.10569L4.03925 30.5145ZM25.4762 30.4574V32.1692H28.8894V28.7457H25.4762V30.4574ZM32.5102 30.4004L32.5302 32.1692L34.4075 32.1883H36.171V35.5926H39.5651L39.6316 37.3614L39.698 39.1302L41.4522 39.1966L43.2061 39.2632L43.2726 41.0224L43.3388 42.7819H50.1653L50.2317 41.0131L50.2981 39.2443H53.6923V32.3974H50.279V28.7457H32.5102V30.4004ZM22.0161 34.0521L21.9492 35.7067L20.195 35.7731L18.4411 35.8398L18.3746 37.599L18.3084 39.3584L16.5542 39.4248L14.8003 39.4915L14.7338 41.2507L14.6676 43.0101L12.8982 43.077L11.1285 43.1436L11.1916 46.5004L11.2544 49.857L13.0179 49.9237L14.7814 49.9903V53.6228H21.5887L21.6552 51.854L21.7216 50.0852L23.4851 50.0186L25.2486 49.9519V32.3974H22.083L22.0161 34.0521ZM29.117 41.1843V49.9711H32.5302V53.6228H39.5842V49.9903L41.3477 49.9237L43.1112 49.857L43.1738 46.4336L43.2366 43.0101H39.698L39.6318 41.2507L39.5653 39.4915L37.8114 39.4248L36.0572 39.3584L35.9908 37.5896L35.9243 35.8208H32.5302V32.3974H29.117V41.1843Z" fill="#EA3223"/>
</svg>
