<svg width="55" height="56" viewBox="0 0 55 56" fill="none" xmlns="http://www.w3.org/2000/svg">
<path fill-rule="evenodd" clip-rule="evenodd" d="M24.459 0.984746C10.6646 2.63587 0.321926 14.2613 0.321926 28.1155C0.321926 40.7846 8.69486 51.5451 21.0156 54.7101C24.662 55.6468 30.1645 55.6421 33.9056 54.6995C39.7049 53.238 44.9725 49.8736 48.5327 45.3568C49.7529 43.8088 52.2948 39.7031 52.2948 39.2803C52.2948 39.1704 52.5092 38.604 52.7709 38.022C54.5201 34.1354 54.8617 30.0744 54.7843 14.0853L54.7204 0.873439L40.2827 0.84608C32.3419 0.831114 25.2213 0.893315 24.459 0.984746ZM22.5696 21.4511C24.866 18.44 26.6408 13.0337 27.2712 7.12812L27.4396 5.55019L27.6108 6.60246C27.7048 7.1812 27.951 8.86483 28.1578 10.3439C29.2761 18.342 32.6679 23.5501 37.9798 25.4245C38.5476 25.6249 39.324 25.935 39.7052 26.1134C40.7354 26.596 47.2915 27.8817 48.7217 27.8817C49.9247 27.8817 49.0906 28.1733 46.9792 28.491C33.6141 30.502 29.4105 34.8757 27.7877 48.4594L27.4944 50.9146L27.2072 48.8101C25.8099 38.5692 23.1725 33.5793 17.9135 31.2276C17.1937 30.9059 16.2648 30.4887 15.849 30.3009C14.9045 29.8742 11.0012 28.9791 8.40425 28.5939C5.38851 28.1466 5.30627 28.0086 7.85193 27.6696C15.0066 26.7167 20.2404 24.5053 22.5696 21.4511Z" fill="white"/>
</svg>
